<?xml version="1.0" encoding="UTF-8" standalone="no"?>
<svg
   xmlns:dc="http://purl.org/dc/elements/1.1/"
   xmlns:cc="http://creativecommons.org/ns#"
   xmlns:rdf="http://www.w3.org/1999/02/22-rdf-syntax-ns#"
   xmlns:svg="http://www.w3.org/2000/svg"
   xmlns="http://www.w3.org/2000/svg"
   xmlns:xlink="http://www.w3.org/1999/xlink"
   xmlns:sodipodi="http://sodipodi.sourceforge.net/DTD/sodipodi-0.dtd"
   xmlns:inkscape="http://www.inkscape.org/namespaces/inkscape"
   width="512"
   height="511.90063"
   viewBox="0 0 409.6005 409.52101"
   id="svg2"
   version="1.1"
   inkscape:version="0.48.4 r9939"
   sodipodi:docname="game_icon.svg"
   inkscape:export-filename="T:\Downloads\sw logo\esw_shaded_20.png"
   inkscape:export-xdpi="90.017471"
   inkscape:export-ydpi="90.017471">
  <metadata
     id="metadata9">
    <rdf:RDF>
      <cc:Work
         rdf:about="">
        <dc:format>image/svg+xml</dc:format>
        <dc:type
           rdf:resource="http://purl.org/dc/dcmitype/StillImage" />
        <dc:title />
      </cc:Work>
    </rdf:RDF>
  </metadata>
  <defs
     id="defs7">
    <linearGradient
       id="linearGradient3754">
      <stop
         style="stop-color:#000000;stop-opacity:0;"
         offset="0"
         id="stop3756" />
      <stop
         id="stop3762"
         offset="0.5"
         style="stop-color:#000000;stop-opacity:0;" />
      <stop
         style="stop-color:#000000;stop-opacity:0.09803922;"
         offset="1"
         id="stop3758" />
    </linearGradient>
    <radialGradient
       inkscape:collect="always"
       xlink:href="#linearGradient3754"
       id="radialGradient3760"
       cx="1573.3125"
       cy="1555.9729"
       fx="1573.3125"
       fy="1555.9729"
       r="1502.6018"
       gradientTransform="matrix(1,0,0,1.0117647,0,-18.305632)"
       gradientUnits="userSpaceOnUse" />
    <radialGradient
       inkscape:collect="always"
       xlink:href="#linearGradient3754"
       id="radialGradient3778"
       cx="64.843742"
       cy="63.463169"
       fx="64.843742"
       fy="63.463169"
       r="72.656242"
       gradientUnits="userSpaceOnUse" />
    <radialGradient
       inkscape:collect="always"
       xlink:href="#linearGradient3754"
       id="radialGradient3784"
       gradientUnits="userSpaceOnUse"
       cx="64.843742"
       cy="63.463169"
       fx="64.843742"
       fy="63.463169"
       r="72.656242" />
  </defs>
  <sodipodi:namedview
     pagecolor="#ffffff"
     bordercolor="#666666"
     borderopacity="1"
     objecttolerance="10"
     gridtolerance="10"
     guidetolerance="10"
     inkscape:pageopacity="0"
     inkscape:pageshadow="2"
     inkscape:window-width="1920"
     inkscape:window-height="1057"
     id="namedview5"
     showgrid="false"
     inkscape:zoom="1"
     inkscape:cx="222.43036"
     inkscape:cy="223.15152"
     inkscape:window-x="-8"
     inkscape:window-y="-8"
     inkscape:window-maximized="1"
     inkscape:current-layer="svg2"
     fit-margin-top="0"
     fit-margin-left="0"
     fit-margin-right="0"
     fit-margin-bottom="0" />
  <path
     id="Selection"
     d="m 203.8556,0.01653208 c 4.35982,0.0619665 8.9517,0.08967303 13.30224,0.41100672 4.79907,0.2095 9.62853,0.43036219 14.39721,1.0574622 42.03184,5.5317 80.23882,23.5458 111.65833,51.9723 l 6.39875,6.2116 4.1448,4.1592 c 8.63032,9.2622 16.59038,19.2123 23.37786,29.9142 12.08886,19.060299 20.34965,37.843799 26.08614,59.668399 2.81225,10.7003 4.54152,21.639 5.60691,32.6337 l 0.45271,4.959 0,1.4397 0.15997,2.5595 0.15997,2.7195 0,13.9173 -0.15357,1.9196 0,1.7597 -0.31194,4.1592 -0.78865,8.6383 c -1.42212,13.295 -4.49032,26.942 -8.55834,39.6723 -6.78428,21.2215 -17.27184,41.2704 -30.48048,59.1885 -13.98448,18.9691 -32.82403,36.7097 -52.64898,49.48 -7.70091,4.9607 -14.70435,8.7855 -22.87556,12.8679 l -10.87789,4.8407 c -15.10747,6.2324 -30.56527,10.5163 -46.71093,13.0231 l -10.23802,1.3453 -4.47913,0.3743 -4.47913,0.3072 -1.91962,0.1455 -3.35935,0.16 -13.9173,0 -2.39953,-0.16 -4.79907,-0.1599 c 0.30554,-1.7005 0.15997,-6.0309 0.15997,-7.9985 l 0,-14.7171 -12.47758,0 0,-19.5162 -49.27044,0 0,-35.0332 -32.473697,0 0,-246.832099 c 0.0032,-1.5309 0.527898,-2.366 0.46551,-3.5193 l 0,-3.3594 c 0.02879,-1.2126 0.295943,-1.5213 0.446313,-2.5595 0.329536,-2.2828 0.599884,-3.5305 1.180571,-5.7589 l 0.72146,-3.0394 c 0.969413,-3.4905 2.207573,-6.9362 3.696883,-10.238 4.43114,-9.8285 9.7661,-18.0061 17.32624,-25.755 6.92665,-7.0978 17.19986,-14.0357 26.23331,-18.1869 8.64152,-3.9704 17.72615,-7.0754 27.03475,-9.0622 l 7.1986,-1.3997 3.99922,-0.7375 c 2.61607,-0.3903959 5.83908,-1.0039596 6.89248,-1.21721445 z M 245.31238,402.1624 l 0.15997,0.16 0,-0.16 z"
     style="fill:#ffffff;fill-opacity:1;stroke:none"
     inkscape:connector-curvature="0"
     sodipodi:nodetypes="ccccccscccccccccccccccccccccccccscccccccccccccccccccccccc" />
  <path
     d="m 256.91013,397.6305 -8.84309,3.5737 -4.59431,1.4413 -2.23956,0.7919 c -0.27781,0.18871 -0.99935,0.28358 -1.48451,0.4879 -0.48449,0.1356 -1.14796,0.19941 -1.71487,0.3515 -0.6435,-0.002 -1.18715,0.24829 -1.77406,0.4781 -0.62425,0.004 -1.16844,0.2315 -1.74526,0.4401 -0.69787,0.0177 -1.29584,0.26945 -1.93402,0.5183 -0.78311,-0.11369 -1.35718,0.11602 -2.0668,0.3936 -0.76259,0.12904 -1.22583,0.27028 -2.23797,0.4063 -0.86364,0.13698 -1.98935,0.31201 -2.39953,0.4799 -2.47255,0.41796 -1.8649,0.33074 -4.15919,0.5279 -2.17039,0.38542 -3.63821,0.44631 -6.39876,0.7998 -1.92585,0.2677 -3.76964,0.43918 -4.95904,0.4799 l -6.98647,0.42426 c -2.18943,0.20346 -4.1907,0.29207 -6.27414,0.27401 l -5.02975,-0.0972 c -1.45284,-0.11871 -2.54713,-0.18017 -3.89316,-0.32057 l -3.73145,-0.41317 -11.03786,-1.3998 c -10.77071,-1.6716 -21.29186,-4.1624 -31.67385,-7.4801 C 120.39742,392.9686 100.77403,382.6074 82.703939,369.4244 69.652073,359.903 57.286473,347.9374 46.965276,335.535 22.41804,306.0383 6.6483018,269.575 1.644473,231.5551 1.0173948,226.7865 0.52309029,221.957 0.31353097,217.1579 l -0.15996895,-1.7596 0,-1.7597 -0.1535701965043,-1.9196 0,-13.9173 0.1535701965043,-1.9196 0,-1.7597 0.16636771,-1.5997 0,-1.4397 0.45271213,-4.959 C 1.3453312,180.2179 2.0763892,174.3742 3.1321842,168.5274 7.1825981,146.0661 14.497978,125.5085 25.483046,105.4996 50.994894,59.036601 94.672816,23.827501 145.41177,8.603201 c 12.00887,-3.6025 22.32177,-5.5939999 34.72576,-7.2256999 l 8.31839,-0.95820003 2.95663,-0.21400002 c 0.45844,0.0673554 5.08701,-0.30806555 5.5805,-0.17046552 -2.54444,0.15190805 -9.74898,1.09584457 -12.06895,1.37296547 l -6.55873,1.2318 -5.91885,1.1869 c -12.22483,2.7147 -24.80958,7.5458 -35.51311,14.0421 -5.1446,3.1226 -11.01546,7.6593 -15.35702,11.8121 l -4.64709,4.9527 c -4.41195,4.967 -8.72791,11.3306 -11.70973,17.2766 -2.42193,4.8311 -4.49673,9.8237 -5.944447,15.0371 l -0.72146,3.0394 c -0.580687,2.2284 -0.851035,3.4761 -1.180571,5.7589 -0.292743,2.0268 -0.404721,1.2125 -0.460711,3.6793 l 0,1.2797 0,1.2798 c -0.06239,1.3373 -0.447913,1.5773 -0.451112,3.1993 l 0,8.3184 c 0.0032,1.6173 0.281545,1.2174 0.367929,2.0796 l 0.132774,2.8795 0.259149,1.1198 0.220758,2.399499 0.25755,1.1198 0.239953,2.2395 0.367929,1.7597 0.30714,0.7998 0.174366,1.1054 0.348733,0.8415 0.463909,2.5323 3.661691,11.3306 0.77105,1.654 0.94861,2.3724 0.75186,1.4845 1.0334,2.5147 2.60269,4.7991 1.93403,3.812 0.61428,0.8383 0.67827,1.2813 1.47171,2.2268 0.98701,1.6925 1.63008,2.3067 6.91546,9.4382 c 10.86989,13.6981 25.7598,26.4541 40.52654,35.825 10.8187,6.8643 20.80076,11.9545 32.47369,17.1471 l 12.79752,5.3254 12.15764,5.6501 4.31916,2.1692 c 14.84032,8.0256 29.05996,17.3934 41.43196,28.9192 l 3.51932,3.5049 3.66488,3.6793 1.47492,1.9196 1.23816,1.2797 0.98541,1.2782 1.87323,2.0812 2.35475,3.0394 0.79984,0.9598 1.45252,2.2396 0.78705,0.9598 c 2.29715,3.2298 4.50312,6.6195 6.43715,10.078 l 2.94183,5.9189 2.0188,3.9992 0.5295,1.4397 0.65587,1.4397 0.76146,2.2396 0.65427,1.4397 0.5295,1.7597 1.23975,3.6793 0.23996,1.1198 0.30874,0.7998 0.45271,2.3995 0.34713,0.9599 0.17277,1.1197 0.34553,0.9598 0.0896,1.5997 0.42071,1.2798 0,1.1198 0.29595,1.1198 0.22235,2.5595 c 0.11198,0.9678 0.29595,0.5487 0.29914,2.0796 l 0,4.4791 0.10878,2.0796 -0.10878,4.6391 -0.11517,2.2395 c -0.17757,1.4206 -0.33274,0.8447 -0.36473,2.8795 -0.0176,1.027 -0.15197,0.8494 -0.27835,1.5997 l -0.14077,1.2797 -0.61268,2.7195 -0.29274,0.7998 -0.0864,0.9599 -0.43511,1.7596 -1.24776,3.5193 -0.98861,3.1722 -0.66867,1.307 -0.34713,1.075 -3.07621,6.1236 -0.67986,0.987 -0.72466,1.4061 -0.67827,0.851 -2.09559,3.209 -0.91023,1.0718 -1.71007,2.278 -2.82185,3.2121 c -0.39832,0.4528 -0.59826,0.75174 -1.08139,1.3822 -2.27464,2.16076 -5.22419,4.87295 -7.02182,6.397 -0.99519,0.91918 -3.10901,2.3245 -4.1872,3.0907 l -8.48796,5.511 -4.77827,2.7578 c -1.02667,0.38013 -2.59789,1.1566 -3.67928,1.6269 z m -94.22172,-94.2713 -1.11978,0 -1.27975,0.4367 -1.11978,0.1136 -1.91963,0.5727 c -1.87004,0.6831 -5.74289,2.6699 -7.35857,3.8073 l -1.59969,1.4285 c -0.87343,0.6782 -0.85264,0.2751 -2.0796,1.5021 -1.14857,1.1518 -0.66867,1.0302 -1.31334,1.774 l -1.17098,1.1726 -1.5293,2.1724 -1.37573,2.8794 c -0.76305,1.5229 -1.45252,2.6267 -1.89083,4.3192 l -0.14398,1.1198 c -0.11517,0.4975 -0.31993,0.6878 -0.41592,1.2797 l 0,1.2798 c -0.0992,0.5791 -0.32793,0.7806 -0.45431,1.2797 l 0,2.2396 0.15997,2.7195 0,2.0796 c 0.14717,0.5263 0.44472,0.7534 0.56629,1.2797 l 0.0976,1.2798 0.34554,0.9598 0.15197,0.9598 0.75345,2.0796 1.60769,2.8794 1.50051,2.7195 c 0.76145,1.123 1.71006,2.182 2.60749,3.1994 4.79747,5.4501 10.93388,8.9406 18.10049,10.1436 l 3.67928,0.4143 3.19938,0 c 4.1096,-0.01 8.95026,-1.3917 12.63755,-3.1642 3.46333,-1.6652 6.64191,-4.1975 9.16302,-7.0738 2.49072,-2.8394 4.02162,-5.4517 5.39415,-8.9582 0.96302,-2.462 1.75486,-6.3156 1.75966,-8.9583 0.005,-2.8698 -0.0784,-5.1782 -0.78225,-7.9985 -1.98521,-7.9392 -7.38896,-14.7715 -14.57477,-18.6667 -3.5945,-1.9484 -9.17422,-3.7225 -13.27742,-3.7289 l -2.39953,0 -2.39954,-0.1376 -1.11978,0 -0.79985,0 c -0.53909,0.2272 -1.0238,0.5487 -1.59969,0.5951 z"
     id="Selection-1"
     inkscape:connector-curvature="0"
     style="fill:#0178ff;fill-opacity:1;stroke:none"
     sodipodi:nodetypes="cccccccccccccccccccccccscccccccccccccccccccccccccccccccccccccccccccccccccccccccccccccccccccccccccccccccccccccccccccccccccccccccccccccccccccccccccccccccccccccccccccccccccccccccccccccccccccccccc" />
  <path
     d="m 282.68752,66.467601 c 0.11198,0.4511 0.97741,2.1932 1.29255,2.5323 l 1.24456,1.0334 c 0.5295,0.4479 0.93102,0.9182 1.59969,1.1662 1.06379,0.3935 1.67008,0.2815 2.71947,0.2335 1.86204,-0.088 3.72568,-0.2399 5.43895,-1.0206 1.23816,-0.5647 2.10519,-1.6269 3.19938,-2.4123 1.05099,-0.7551 4.34155,-3.0634 5.1126,-0.8894 0.30394,0.859 -0.20956,2.0188 -0.70386,2.7146 -1.31175,1.8461 -3.12899,2.5851 -5.20859,3.1962 -0.76785,0.224 -2.13718,0.3279 -2.62349,0.987 -0.35353,0.4799 -0.23035,1.1726 -0.26235,1.7373 -0.0368,0.6351 -0.29434,1.3837 -0.71186,1.8716 -0.98861,1.155 -3.85685,1.7037 -4.38155,2.9339 -0.27515,0.6478 0.54229,1.774 0.44471,3.1929 -0.0592,0.8671 -1.21736,4.8119 -1.56929,5.7589 l -2.42513,6.3988 c -0.37753,1.067 -1.011,2.889 -0.93262,3.9992 0.18236,2.621899 3.37854,4.077599 4.33996,7.198599 0.32473,1.0558 0.4847,2.7195 0.65107,3.8393 l 0.56949,2.3931 c 0.18716,0.6431 0.81904,1.1838 1.19337,2.4059 l 0.16797,0.9598 0.84143,3.6793 1.0686,2.8795 c 1.68447,4.2775 2.0204,5.047 4.53991,8.9582 l 3.80727,5.5989 2.80265,4.6391 c 1.13898,1.9485 2.5627,4.4264 2.70348,6.7187 0.0576,0.9599 -0.35673,2.4844 -1.13418,3.0954 -0.97421,0.7663 -3.83126,0.4623 -4.76868,-0.2783 -1.07179,-0.8478 -1.90203,-2.6843 -2.43632,-3.9368 -0.83184,-1.9469 -1.63009,-3.9225 -2.95143,-5.599 -0.96941,-1.2301 -2.38354,-2.5035 -4.05202,-2.3915 -0.85103,0.058 -1.56769,0.5919 -2.19317,1.1326 -1.41892,1.2237 -2.66988,3.2985 -3.56891,4.9382 -1.95642,3.5625 -3.32415,7.0115 -4.54152,10.8779 l -1.12138,4.6391 -2.14038,6.3988 -2.83945,9.5981 -0.71186,4.4791 0,1.5997 -0.47351,3.5193 0,1.5997 -0.36793,4.7991 c 0.13437,3.6041 2.11639,3.4585 2.12119,6.5587 0.003,2.0988 -0.11998,1.6717 -0.40952,3.5193 l -0.39033,4.1592 c -0.0112,1.0654 -0.088,2.0204 0.27195,3.0394 l 2.66668,5.1191 c 0.14238,0.5039 0.10718,1.67 0.10078,2.2395 -0.0144,1.243 -0.40312,2.7515 -0.59668,3.9992 -0.47991,3.1146 -1.07659,6.2612 -2.01721,9.2782 -0.53589,1.7165 -2.10679,5.4742 -1.99641,7.0387 l 0.29114,7.5185 c -0.005,2.7099 -1.5165,5.199 -4.47913,5.1158 -0.40792,-0.011 -0.74225,-0.035 -1.11338,-0.2287 -1.21577,-0.6351 -2.23317,-2.9083 -2.23317,-4.2472 l 0.5343,-2.8794 1.59969,-5.7589 0.81904,-3.5193 0.12477,-1.1198 0.37753,-1.4397 0.12158,-1.4398 0.36153,-1.7596 0.36153,-4.9591 c -0.0832,-1.4973 -0.76146,-2.8778 -1.0542,-4.3191 l -1.043,-7.3586 c -0.18236,-1.4973 -0.4879,-3.1306 -0.45431,-4.6391 l 0.15837,-1.9196 0,-2.7195 c -0.0176,-1.5117 -0.30394,-2.9978 -0.56629,-4.4791 l -0.14717,-1.2798 -0.94222,-4.1592 -0.34393,-1.7596 -0.80944,-3.6793 -0.0992,-1.5997 c -0.10078,-0.843 -0.27675,-0.7551 -0.29115,-1.9196 -0.0208,-1.7773 0.15197,-1.4094 0.29275,-2.7195 l 0.34713,-4.7991 0.15997,-2.5595 -0.16637,-3.9992 0,-1.5997 -0.28635,-1.5997 -0.23515,-3.1994 -0.47191,-2.3995 c -0.32793,-1.9692 -0.99341,-4.2024 -2.0268,-5.9188 -0.23196,-0.3856 -0.92782,-1.5501 -1.31335,-1.6957 -0.63668,-0.2432 -2.17558,0.8494 -2.69868,1.2221 -2.0556,1.4686 -4.35915,4.4328 -5.75888,6.5524 l -2.26196,3.5193 -1.45732,2.8794 c -2.41073,4.8263 -3.79286,8.6911 -5.06301,13.9173 -0.87343,3.5929 -1.65888,7.8161 -1.61569,11.5178 l 0.14557,1.5997 0.46711,5.5989 0.66707,7.0386 0,1.5997 0.29274,1.9196 0.18717,4.3192 0.15997,2.5595 0.15997,3.5193 c 0.005,3.5881 -0.08,7.1554 -0.5263,10.718 l -0.40312,1.9196 -0.39673,3.3593 -0.43351,2.8795 0,1.4397 -0.34713,2.0796 -0.45272,6.7187 0,11.9977 -0.15997,2.2395 -0.31993,7.8385 -0.18237,2.3995 -0.29754,4.6391 0,3.9993 0.31994,5.2789 0.15997,3.0394 0,2.0796 0.4895,4.9591 0,1.5997 0.46071,2.3995 0,1.4397 0.44152,2.2396 0.22075,1.9196 1.45732,7.1986 0.5199,3.3594 c 0.34233,1.3773 1.93722,3.6265 2.21877,4.4791 0.32314,0.9838 0.22236,2.0316 0.29914,3.0394 l 0.29114,3.9992 0,2.2396 0.31994,4.7991 0,8.7983 -0.15997,2.7194 0,2.5595 -0.15197,1.9197 0,2.0796 0.15197,2.0795 0.15677,2.8795 -0.14237,1.4397 c -0.0864,1.2494 -0.0112,2.7611 0.17277,3.9992 l 0.52789,1.7597 0.13598,1.1198 0.23675,1.1198 c 0.0976,1.0126 -0.29274,2.2763 -0.67987,3.1993 -0.43511,1.0366 -1.5341,2.7483 -2.64748,3.0954 -1.90843,0.5951 -4.42794,-1.766 -4.96064,-3.4153 -0.17916,-0.5535 -0.16477,-1.1822 -0.15837,-1.7597 0.0208,-1.7596 0.83344,-3.7336 1.31495,-5.4389 l 0.26874,-1.2798 c 0.51031,-2.1035 0.84144,-3.3817 0.81585,-5.5989 -0.0128,-1.0894 -0.5327,-2.9914 -0.75026,-4.1592 -0.35993,-1.934 -0.5071,-3.9576 -0.5295,-5.9188 l -0.15996,-2.3995 0,-5.7589 0.15676,-2.2396 -0.15676,-1.9196 0,-2.7195 -0.15997,-2.3995 c -0.0176,-1.5261 -0.0608,-3.4794 -0.38713,-4.9591 l -1.86684,-5.9188 -1.5149,-6.0788 c -0.5023,-1.3438 -1.66528,-2.2556 -2.22197,-3.3594 -0.32794,-0.6527 -0.42872,-1.9564 -0.5231,-2.7195 l -0.23195,-3.0394 -0.93902,-10.8779 -0.42232,-4.6391 0.0928,-1.1197 c -0.024,-0.5471 -0.15837,-0.8287 -0.11518,-1.4398 l 0.13118,-2.0796 0.15997,-2.3995 0.15997,-2.8794 0,-2.7195 0.15997,-2.7195 0,-7.3585 0.15996,-2.3996 0,-11.3578 -0.15996,-2.3995 0,-3.6793 -0.15357,-1.9196 0,-2.0796 -0.16637,-2.5595 -0.15997,-2.8795 0,-2.0796 -0.5087,-6.5587 -0.17597,-0.9598 c -0.0352,-0.5791 0.23036,-0.8398 0.13598,-1.4397 -0.072,-0.4591 -0.39993,-0.9278 -0.5231,-1.7597 l -0.23516,-3.5193 -1.04619,-8.4784 -0.25436,-3.1993 -0.93901,-7.3586 -0.39833,-2.7195 0.43512,-3.3593 0,-1.4397 0.41912,-2.0796 0.22555,-1.7597 2.02681,-9.2782 0.78385,-3.8393 0.95661,-3.9992 0.74386,-4.6391 0.42712,-2.8794 0,-1.4397 0.16636,-1.9197 0,-3.3593 -0.15996,-2.7195 c -0.006,-3.6281 -0.82544,-7.9712 -1.61889,-11.5177 -0.86703,-3.8809 -2.31635,-8.3056 -4.45194,-11.6778 -0.87983,-1.3885 -2.41073,-3.177 -3.84725,-3.9848 -0.96461,-0.5423 -4.07281,-1.0718 -5.1462,-0.7727 -0.70067,0.1968 -1.67968,0.9215 -2.21237,1.4126 -2.21717,2.0428 -3.27297,5.1654 -4.1224,7.984 -0.59349,1.9676 -1.0206,3.345 -0.99661,5.439 l 0.28635,2.5595 c 0.10238,1.7852 -0.0864,4.3751 -1.44772,5.6981 -1.25256,1.2173 -3.6329,1.2077 -4.79587,-0.1328 -1.07179,-1.235 -1.25896,-2.5707 -1.24136,-4.1256 0.0368,-3.0458 2.21397,-7.037 3.38174,-9.9181 0.70707,-1.7485 0.76625,-3.3177 1.0654,-3.9992 l 1.08778,-1.7597 c 0.65748,-1.3629 0.65268,-2.4859 0.98221,-3.8392 l 0.62388,-2.7195 c -0.0416,-2.4395 -2.69867,-2.3339 -4.1016,-3.4217 -2.0508,-1.5901 -4.79427,-5.527 -5.83887,-7.9361 -1.25575,-2.8954 -1.83644,-6.042 -2.41713,-9.1182 l -0.35673,-1.7597 -0.21276,-2.7195 -0.40792,-2.719399 -0.10558,-1.1198 -1.93082,-5.279 c -1.53251,-3.9528 -3.00102,-7.2002 -7.28659,-8.8127 -1.90043,-0.715 -3.92404,-0.779 -5.91885,-0.9726 l -4.95904,-0.4527 c -1.17737,-0.013 -2.37554,-0.019 -3.51931,0.3103 -1.13898,0.328 -1.76606,1.083 -3.67929,1.1278 -0.36633,0.01 -0.93422,0.01 -1.27975,-0.09 -1.20457,-0.3455 -1.5821,-1.5597 -1.0478,-2.6283 0.24475,-0.4879 0.80305,-1.0557 1.20777,-1.4237 1.67007,-1.5133 3.63129,-1.6892 5.75888,-1.782 l 1.27975,-0.08 0.95981,0.2127 1.75966,0.1312 3.51932,1.2094 c 0.65907,0.1983 3.77047,0.6335 4.47913,0.6063 2.22517,-0.086 6.28358,-0.995 7.99845,-2.4284 0.53589,-0.4479 1.50051,-1.4269 1.80925,-2.0444 0.33753,-0.6718 0.38072,-1.9516 0.4751,-2.7194 l 0.29115,-2.7195 c -0.0352,-1.8061 -0.60468,-3.6825 -1.93883,-4.9447 -2.31955,-2.1947 -5.87406,-2.3323 -8.79509,-3.0026 -1.011,-0.2319 -2.24596,-0.6878 -3.19938,-1.1022 -2.30995,-1.0046 -5.88526,-4.0232 -7.65131,-5.842 -1.41093,-1.4509 -3.24257,-3.4074 -5.46614,-3.2634 l -3.99923,0.6767 -2.07959,0.2495 -1.27975,0.2416 c -0.47511,0.04 -0.81744,-0.05 -1.27975,-0.1056 -2.102,-0.2511 -3.94484,-1.2734 -3.44254,-3.7033 0.0896,-0.4351 0.23196,-0.7598 0.49431,-1.1198 1.47331,-2.0284 4.68709,-2.9674 7.10742,-2.873 l 2.39953,0.2048 c 2.36434,0.3871 6.88187,2.3051 8.95826,3.5401 l 4.79907,3.2121 1.27975,0.5775 2.87944,1.2862 3.67929,1.4397 c 1.5421,0.7087 2.93543,1.6925 4.31916,2.6683 0.76625,0.5391 1.89243,1.3229 2.87944,1.2205 0.81584,-0.085 1.31335,-0.8606 1.67808,-1.5181 0.83983,-1.5149 1.06059,-3.5769 1.0414,-5.2789 -0.0256,-2.1292 -1.0622,-4.4888 -2.87945,-5.6709 -1.80924,-1.179 -3.88884,-1.2526 -5.81167,-3.4746 -1.10858,-1.2797 -1.77725,-3.4873 0.37273,-4.1639 0.38553,-0.1216 0.87663,-0.1392 1.27975,-0.1216 2.39474,0.104 4.75108,2.3515 6.55873,3.74 0.93262,0.7183 2.45392,1.7165 3.67928,1.6589 3.97843,-0.1855 9.49416,-2.3595 12.79752,-4.5527 1.77566,-1.1774 3.42814,-2.6875 4.24718,-4.6919 0.64307,-1.5741 0.81424,-3.1242 0.5023,-4.799 -0.14237,-0.7631 -0.70546,-2.3228 -0.15197,-2.9707 0.77425,-0.907 2.83785,0.4815 3.72088,0.7711 2.23636,0.7358 4.80386,0.907 6.71869,-0.7135 0.56149,-0.4751 1.98842,-1.7996 2.41233,-2.3675 0.59189,-0.7951 1.00141,-1.6765 1.43972,-2.5579 2.51152,-5.0454 2.95943,-9.7613 6.54593,-14.2373 1.45572,-1.8156 3.35295,-2.8218 5.6917,-2.5323 0.57749,0.072 3.01541,0.4255 2.59949,1.3854 -0.20636,0.4799 -1.55649,0.9646 -2.0524,1.1629 -1.96282,0.7871 -3.15458,1.1518 -4.79907,2.5899 -0.4927,0.4303 -0.88942,0.8351 -1.23656,1.3934 -1.64288,2.6442 0.19037,5.1222 2.05081,7.0322 l 1.41732,1.2925 c 0.98701,1.0142 1.13898,1.9581 2.72747,3.0171 0.5151,0.3423 1.15018,0.6686 1.75966,0.7886 0.39672,0.077 1.21576,0.1984 1.59969,0.152 2.10839,-0.2528 4.43274,-2.6347 5.60371,-4.284 0.85424,-1.203 1.27495,-2.1932 2.42193,-3.3145 1.14378,-1.1182 4.50953,-3.497 5.6821,-1.1614 0.55189,1.099 -0.016,2.5259 0.08,3.6761 0.0688,0.8334 0.61428,2.5355 0.90703,3.3593 0.45431,1.2766 1.35333,2.9146 2.42833,3.7577 1.33894,1.0494 3.17858,1.4205 4.79267,1.8236 1.23336,0.3088 2.5627,0.4815 3.83925,0.4975 3.88565,0.045 10.51156,-1.9292 14.55718,-2.825 l 1.27975,-0.344 4.15919,-0.8158 2.87944,0 0.63988,0.3055 c 1.06699,1.043 3.46492,1.5693 4.15919,2.7195 l -3.67929,-0.4895 -6.60351,0 c -1.79646,0.026 -4.24718,0.5951 -6.03403,0.9758 -1.84445,0.3935 -5.35416,1.3838 -6.64351,2.7467 -2.30196,2.4283 0.90702,4.7303 2.64268,6.2724 1.66848,1.4861 1.77406,2.817 2.98982,4.4119 2.0588,2.7035 3.97363,4.3176 6.92986,5.9877 l 2.5595,1.1629 c 2.89704,1.243 4.95904,1.8493 7.99845,2.5915 l 1.91963,0.5487 3.19937,0.5871 c 2.17558,0.4399 6.1844,0.7279 7.99845,1.8364 2.03961,1.2478 1.21417,3.5786 -1.11978,3.4138 -2.37554,-0.168 -3.71288,-0.7455 -5.91885,-1.4301 l -2.23957,-0.5343 -1.11978,-0.3984 -1.27975,-0.3151 -1.27975,-0.4319 c -1.41893,-0.3167 -6.29798,-0.7039 -7.83848,-0.7007 -1.43332,0 -1.42213,0.1792 -2.5595,0.3264 l -1.27976,0 -1.43972,0.4255 c -1.49091,0.2303 -1.73406,-0.1568 -4.31916,0.6495 -2.82185,0.8798 -5.83727,4.5351 -6.86427,7.237 l -0.27194,0.7998 -0.26395,2.3995 c 0.0208,0.2832 0.10078,0.3952 0.20156,0.6399 l 0.18236,-0.6399 z m -59.7532,-56.2787 c 0.41752,0.4703 0.5375,0.955 0.5375,1.5693 0,1.6093 -1.18057,2.4731 -2.71468,2.3931 -2.44112,-0.1279 -3.53371,-3.6057 -0.95981,-4.6887 1.09899,-0.2271 2.33875,-0.1727 3.13699,0.7263 z m 16.69916,43.9883 -4.6391,1.0158 c -1.98841,0.6414 -6.62431,2.7434 -8.31839,3.8568 -0.92462,0.6079 -1.37893,1.0606 -2.19637,1.7517 -0.89742,0.7582 -1.75966,1.4493 -2.5595,2.3211 -3.67769,4.0025 -6.75389,10.1373 -6.76189,15.6626 l 0.0112,0.2638 0.14895,3.5163 0.18813,3.0986 0.0279,0.1503 0.44335,2.3915 0.82018,2.5772 c 0.42552,1.2861 0.87823,2.6219 1.47971,3.8392 3.28096,6.641899 9.83649,12.506399 16.87673,14.811499 1.49251,0.4896 4.72548,1.3278 6.23878,1.3454 l 6.7187,0 c 1.64768,0 4.29517,-0.7295 5.91885,-1.1902 l 3.19938,-1.0718 1.43972,-0.6526 c 0.58869,-0.2176 0.91982,-0.2336 1.5725,-0.5599 0.89422,-0.448 4.22798,-2.8155 5.02942,-3.5242 l 2.11159,-2.3803 c 0.71186,-0.7406 1.0398,-0.8782 1.74206,-1.820399 1.17897,-1.5853 2.86984,-5.271 3.54171,-7.197 1.10859,-3.1738 1.5581,-5.7637 1.51971,-9.1183 l -0.36153,-4.799 -0.35033,-1.1198 -0.14877,-0.9598 -0.87663,-2.8795 -1.65088,-3.4025 c -2.92743,-5.6677 -7.30898,-9.7613 -12.92229,-12.716 -1.18697,-0.6238 -2.57071,-1.2733 -3.84566,-1.6892 l -2.5595,-0.6687 c -1.60609,-0.3871 -4.48393,-1.0366 -6.07882,-1.0174 l -3.67929,0 z m 65.74724,31.3539 c -3.05381,0.6639 -4.97664,-3.932 -1.43972,-5.0614 3.29696,-0.4687 4.77987,4.3367 1.43972,5.0614 z M 184.60416,105.0105 c -1.31334,-0.104 -1.89563,-1.5853 -1.43812,-2.7099 0.33114,-0.8158 0.97421,-1.2029 1.75806,-1.4973 2.71147,-0.4495 2.53231,4.4344 -0.31994,4.2072 z m -14.65955,1.4333 c -0.61428,0.7807 -1.50691,1.0126 -2.45713,0.9694 -1.67807,-0.075 -2.76106,-1.8124 -2.0572,-3.3529 0.55829,-1.2238 1.43812,-1.6717 2.69708,-1.8365 2.32115,-0.027 3.15139,2.5276 1.81725,4.22 z m 172.86884,3.5033 c -1.78525,-0.1919 -2.92263,-2.3883 -2.10359,-3.964 0.34233,-0.6623 0.81264,-0.8782 1.46372,-1.155 3.75927,-0.9342 4.47273,5.5302 0.63987,5.119 z m -123.37925,56.981 c 0.71826,1.7692 1.66048,5.3238 -0.91662,6.1348 -0.31514,0.099 -0.78865,0.1152 -1.11978,0.098 -1.36614,-0.078 -2.29396,-1.4701 -2.54351,-2.7131 -0.44791,-2.2236 0.4895,-5.3174 3.02021,-5.7797 1.15018,0.1552 1.18217,1.331 1.5597,2.2604 z"
     id="Selection-8"
     inkscape:connector-curvature="0"
     style="fill:#01b4ff;fill-opacity:1;stroke:none"
     sodipodi:nodetypes="cccccccccccccccccccccccccccccccccccccccccccccccccccccccccccccccccccccccccccccccccccccccccccccccccccccccccccccccccccccccccccccccccccccccccccccccccccccccccccccccccccccccccccccccccccccccccccccccccccccccccccccccccccccccccccccscccccccscccccccccccccsccccccccccccccccccccccccccccccccccccccccccccccccccccccccccccccccccccccccccccccccccccccccccccccsccccccccccccccccccccccccccccccccccccccccccccccccccccccccscccc" />
  <path
     sodipodi:type="arc"
     style="fill:url(#radialGradient3784);fill-opacity:1;stroke:none"
     id="path3760"
     sodipodi:cx="64.843742"
     sodipodi:cy="63.463169"
     sodipodi:rx="72.656242"
     sodipodi:ry="72.656242"
     d="m 137.49998,63.463169 a 72.656242,72.656242 0 1 1 -145.31248,0 72.656242,72.656242 0 1 1 145.31248,0 z"
     transform="matrix(2.8187564,0,0,2.8187564,22.021533,25.833548)" />
</svg>
